<?xml version="1.0" encoding="utf-8"?>
<!-- Generator: Adobe Illustrator 16.0.0, SVG Export Plug-In . SVG Version: 6.00 Build 0)  -->
<!DOCTYPE svg PUBLIC "-//W3C//DTD SVG 1.1//EN" "http://www.w3.org/Graphics/SVG/1.1/DTD/svg11.dtd">
<svg version="1.1" id="Capa_1" xmlns="http://www.w3.org/2000/svg" xmlns:xlink="http://www.w3.org/1999/xlink" x="0px" y="0px"
	 width="650.951px" height="111.329px" viewBox="0 0 650.951 111.329" enable-background="new 0 0 650.951 111.329"
	 xml:space="preserve">
<g>
	<path fill="#004B83" d="M30.603,1.913c14.991,0,24.108,5.571,24.716,7.496c0.608,2.025,0.608,7.091,0.608,8.914
		c0,1.52-0.709,3.444-2.837,3.444c-6.482,0-1.215-12.965-22.285-12.965c-8.104,0-12.765,5.469-12.765,11.344
		c0,19.45,43.56,4.458,43.56,33.733c0,14.485-12.56,25.427-31.099,25.427c-16.511,0-29.883-9.118-29.883-18.133
		c0-2.33,1.62-4.66,4.153-4.66c8.205,0,4.559,15.904,25.223,15.904c10.738,0,17.627-5.672,17.627-13.574
		c0-18.741-44.167-6.077-44.167-33.833C3.454,10.421,16.623,1.913,30.603,1.913"/>
	<path fill="#004B83" d="M96.041,28.251c8.508,0,19.652,3.95,19.55,14.08c-0.101,13.676-23.096,16.106-33.63,16.714
		c1.214,7.598,7.192,12.358,14.181,12.358c5.977-0.304,9.927-2.228,14.182-6.077c1.216-1.113,1.925-2.127,3.749-2.127
		c1.62,0,2.33,1.014,2.33,2.328c0,5.066-11.144,13.171-23.401,13.171c-13.98,0-25.731-9.522-25.832-24.008
		C67.271,38.988,77.098,28.251,96.041,28.251 M81.149,53.575c5.269-0.506,21.274-2.532,21.274-12.662
		c0-4.559-2.736-7.192-7.295-7.192C85.404,33.721,80.947,43.446,81.149,53.575"/>
	<path fill="#004B83" d="M160.466,77.685c-4.254,0-4.66-2.229-4.456-5.47h-0.407c-2.836,4.255-9.217,6.482-16.005,6.482
		c-11.547,0-17.828-7.09-17.828-14.993c0-13.775,18.639-19.044,33.226-19.044c0-5.875-3.443-10.332-10.13-10.332
		c-8.003,0-8.712,5.875-15.195,5.875c-2.431,0-4.457-1.316-4.457-4.051c0-4.864,9.928-7.902,18.942-7.902
		c13.272,0,24.009,4.861,24.009,17.828v21.78c0,5.065,5.065,3.749,5.065,6.686c0,2.229-0.81,3.141-4.862,3.141H160.466z
		 M154.997,50.132c-11.751,0-19.247,7.091-19.247,13.472c0,4.66,3.849,9.421,9.117,9.421c6.585,0,9.928-6.28,10.13-11.142V50.132z"
		/>
	<path fill="#004B83" d="M203.315,28.513c9.522,0,18.74,4.861,18.74,10.534c0,2.836-2.329,4.862-6.382,4.862
		c-5.875,0-4.76-9.926-12.762-9.926c-6.889,0-11.955,8.104-11.955,20.563c0,10.637,6.483,17.119,14.082,17.119
		c9.623,0,12.459-7.799,15.801-7.799c1.419,0,2.533,1.012,2.533,2.431c0,4.357-9.118,12.662-21.273,12.662
		c-14.385,0-25.122-9.927-25.122-24.513C176.977,39.351,188.322,28.513,203.315,28.513"/>
	<path fill="#004B83" d="M232.792,77.685c-2.634,0-3.748-1.014-3.748-2.735c0-3.85,4.762-0.708,4.762-7.396V13.664
		c0-5.471-5.471-3.039-5.471-7.496c0-2.026,10.839-5.673,14.992-5.673c2.33,0,3.648,1.215,3.648,6.685v60.375
		c0,6.688,4.76,3.546,4.76,7.396c0,1.722-1.114,2.735-3.748,2.735H232.792z"/>
	<path fill="#004B83" d="M299.143,77.685c-5.065,0-5.47-1.723-6.078-6.382c-4.357,4.56-10.434,7.396-16.817,7.396
		c-11.75,0-16.612-7.496-16.612-16.715V41.218c0-7.192-4.66-4.053-4.66-7.902c0-3.241,12.156-5.065,13.676-5.065
		c2.43,0,4.153,1.216,4.153,7.496v24.008c0,9.219,2.229,11.448,8.104,11.448c5.673,0,11.345-3.648,11.345-9.32V41.218
		c0-7.192-4.66-4.053-4.66-7.902c0-3.241,12.156-5.065,13.676-5.065c2.432,0,4.153,1.216,4.153,7.496v32.112
		c0,5.571,5.166,4.355,5.166,7.091c0,1.52-0.708,2.735-3.748,2.735H299.143z"/>
	<path fill="#004B83" d="M314.74,13.663c0-4.963-5.268-3.85-5.268-6.888c0-1.52,1.216-2.128,2.432-2.432
		c1.52-0.405,9.522-3.849,12.359-3.849c3.14,0,3.646,2.128,3.646,6.685v27.25c4.154-3.95,9.117-6.178,14.993-6.178
		c13.979,0,21.678,10.231,21.678,23.703c0,16.309-11.751,26.745-28.162,26.745c-13.372,0-21.679-6.281-21.679-19.855V13.663z
		 M327.909,55.905c0,12.865,4.66,16.715,10.231,16.715c7.396,0,12.459-5.673,12.459-18.032c0-12.763-4.861-19.854-11.345-19.854
		c-4.659,0-11.346,3.241-11.346,13.574V55.905z"/>
	<path fill="#7DA0C4" d="M413.338,51.659h-30.764l-9.193,26.637h-5.422l27.346-77.674h5.422l27.344,77.674h-5.658L413.338,51.659z
		 M411.805,47.062l-4.949-14.498c-1.572-4.636-3.064-9.076-4.48-13.319c-1.414-4.244-2.789-8.76-4.125-13.554h-0.471
		c-1.338,4.794-2.711,9.31-4.125,13.554c-1.414,4.243-2.908,8.683-4.479,13.319l-4.951,14.498H411.805z"/>
	<rect x="436.426" y="1.947" fill="#7DA0C4" width="4.672" height="76.349"/>
	<path fill="#7DA0C4" d="M450.289,52.306c0-4.247,0.637-8.051,1.912-11.415c1.273-3.36,2.973-6.175,5.096-8.44
		s4.582-3.999,7.381-5.205c2.795-1.203,5.75-1.804,8.865-1.804c3.539,0,6.494,0.637,8.867,1.911
		c2.371,1.274,4.406,2.725,6.105,4.353l-2.76,3.292c-1.631-1.556-3.436-2.848-5.416-3.876c-1.984-1.025-4.213-1.539-6.691-1.539
		c-2.619,0-5.043,0.548-7.273,1.646c-2.23,1.098-4.176,2.654-5.84,4.673c-1.662,2.016-2.973,4.405-3.928,7.167
		c-0.955,2.76-1.434,5.841-1.434,9.237c0,3.329,0.441,6.371,1.326,9.133c0.885,2.761,2.125,5.133,3.717,7.114
		c1.594,1.982,3.539,3.522,5.84,4.618c2.301,1.1,4.832,1.646,7.592,1.646c2.691,0,5.188-0.565,7.488-1.699
		c2.299-1.13,4.336-2.512,6.105-4.141l2.441,3.185c-2.195,1.983-4.637,3.611-7.326,4.885c-2.691,1.274-5.666,1.911-8.92,1.911
		c-3.33,0-6.391-0.601-9.186-1.804c-2.797-1.203-5.238-2.938-7.326-5.204c-2.09-2.265-3.717-5.044-4.885-8.335
		S450.289,56.553,450.289,52.306"/>
	<path fill="#7DA0C4" d="M498.381,26.716h4.674v32.068c0,5.452,0.9,9.469,2.707,12.052c1.805,2.585,4.76,3.876,8.865,3.876
		c3.045,0,5.805-0.831,8.283-2.495c2.477-1.662,5.203-4.301,8.176-7.91v-37.59h4.674v50.969h-3.93l-0.531-8.494h-0.213
		c-2.479,2.972-5.096,5.345-7.857,7.114c-2.76,1.768-5.91,2.653-9.451,2.653c-5.309,0-9.203-1.593-11.68-4.777
		c-2.479-3.187-3.717-8.105-3.717-14.761V26.716z"/>
	<path fill="#7DA0C4" d="M544.572,52.306c0-4.104,0.598-7.82,1.803-11.149c1.205-3.327,2.85-6.159,4.939-8.496
		c2.086-2.334,4.494-4.123,7.221-5.362c2.725-1.236,5.609-1.857,8.654-1.857c3.113,0,5.82,0.549,8.123,1.645
		c2.299,1.099,4.725,2.638,7.273,4.619l-0.213-9.343V1.335h4.672v76.35h-4.033l-0.426-6.583h-0.318
		c-2.055,2.054-4.479,3.876-7.273,5.469c-2.797,1.592-5.895,2.388-9.293,2.388c-6.441,0-11.574-2.283-15.396-6.848
		C546.482,67.543,544.572,60.945,544.572,52.306 M549.563,52.306c0,3.398,0.371,6.479,1.115,9.238
		c0.742,2.763,1.822,5.116,3.238,7.063c1.414,1.946,3.166,3.469,5.256,4.564c2.088,1.1,4.477,1.646,7.168,1.646
		c2.828,0,5.537-0.726,8.121-2.176s5.221-3.522,7.912-6.213V36.166c-2.691-2.405-5.221-4.105-7.592-5.097
		c-2.373-0.991-4.797-1.486-7.273-1.486c-2.549,0-4.922,0.583-7.115,1.751c-2.193,1.169-4.088,2.762-5.682,4.779
		c-1.592,2.018-2.85,4.425-3.768,7.221C550.021,46.131,549.563,49.12,549.563,52.306"/>
	<path fill="#7DA0C4" d="M600.637,15.009c-1.203,0-2.213-0.389-3.025-1.169c-0.814-0.777-1.221-1.768-1.221-2.972
		c0-1.345,0.406-2.39,1.221-3.133c0.813-0.744,1.822-1.115,3.025-1.115s2.213,0.371,3.027,1.115
		c0.813,0.743,1.221,1.788,1.221,3.133c0,1.204-0.408,2.195-1.221,2.972C602.85,14.621,601.84,15.009,600.637,15.009
		 M598.195,27.328h4.672v50.969h-4.672V27.328z"/>
	<path fill="#7DA0C4" d="M612.316,64.943c0-5.592,2.654-9.875,7.963-12.848c5.311-2.974,13.627-5.097,24.955-6.371
		c0.068-1.913-0.055-3.841-0.371-5.788c-0.32-1.946-0.922-3.68-1.807-5.203c-0.887-1.522-2.123-2.761-3.715-3.717
		c-1.594-0.955-3.629-1.432-6.107-1.432c-3.471,0-6.619,0.672-9.451,2.016c-2.832,1.346-5.096,2.654-6.795,3.929l-2.123-3.504
		c0.918-0.637,2.033-1.344,3.344-2.123c1.311-0.778,2.762-1.487,4.355-2.124c1.592-0.637,3.344-1.185,5.254-1.646
		c1.912-0.46,3.893-0.69,5.947-0.69c3.041,0,5.592,0.514,7.646,1.539c2.053,1.027,3.717,2.426,4.99,4.195
		c1.273,1.77,2.178,3.841,2.707,6.211c0.531,2.373,0.797,4.939,0.797,7.699v32.599h-3.93l-0.529-6.583h-0.213
		c-2.619,2.055-5.434,3.876-8.443,5.47c-3.008,1.593-6.211,2.389-9.609,2.389c-2.053,0-3.965-0.284-5.734-0.849
		c-1.77-0.567-3.344-1.416-4.725-2.55c-1.381-1.132-2.461-2.583-3.238-4.353C612.703,69.439,612.316,67.35,612.316,64.943
		 M617.201,64.731c0,3.682,1.061,6.301,3.186,7.856c2.123,1.558,4.635,2.337,7.539,2.337c2.973,0,5.805-0.707,8.494-2.124
		c2.689-1.415,5.629-3.467,8.814-6.159V49.333c-5.24,0.637-9.646,1.418-13.221,2.335c-3.576,0.921-6.461,2.019-8.654,3.292
		c-2.195,1.275-3.77,2.726-4.725,4.354C617.678,60.945,617.201,62.75,617.201,64.731"/>
	<path fill="#7DA0C4" d="M369,95.161h1.199l0.125,2.357h0.094c0.674-0.785,1.424-1.438,2.256-1.959
		c0.83-0.52,1.664-0.781,2.506-0.781c1.219,0,2.154,0.281,2.807,0.846c0.65,0.561,1.113,1.32,1.387,2.277
		c0.883-0.957,1.738-1.717,2.568-2.277c0.83-0.564,1.689-0.846,2.57-0.846c3.027,0,4.541,1.955,4.541,5.861v9.813h-1.42v-9.621
		c0-1.635-0.273-2.84-0.82-3.613c-0.545-0.777-1.396-1.164-2.553-1.164c-1.365,0-2.881,0.955-4.541,2.867v11.531h-1.385v-9.621
		c0-1.635-0.275-2.84-0.82-3.613c-0.547-0.777-1.41-1.164-2.586-1.164c-1.367,0-2.879,0.955-4.539,2.867v11.531H369V95.161z"/>
	<path fill="#7DA0C4" d="M393.889,102.839c0-1.252,0.184-2.379,0.551-3.377s0.863-1.842,1.482-2.531
		c0.621-0.691,1.324-1.221,2.113-1.594c0.787-0.371,1.602-0.559,2.441-0.559c1.809,0,3.229,0.617,4.258,1.848
		c1.029,1.232,1.545,2.975,1.545,5.225v0.574c0,0.191-0.021,0.383-0.063,0.574h-10.91c0.021,0.955,0.168,1.842,0.443,2.658
		c0.271,0.818,0.656,1.52,1.148,2.104c0.494,0.584,1.09,1.041,1.783,1.369c0.693,0.33,1.471,0.494,2.332,0.494
		c0.82,0,1.561-0.121,2.223-0.365s1.277-0.578,1.844-1.004l0.568,1.084c-0.609,0.359-1.277,0.699-2.002,1.018
		c-0.725,0.32-1.645,0.479-2.758,0.479c-0.967,0-1.877-0.182-2.727-0.541c-0.854-0.361-1.594-0.889-2.225-1.576
		c-0.631-0.691-1.131-1.531-1.498-2.518C394.072,105.212,393.889,104.093,393.889,102.839 M404.955,101.915
		c0-1.977-0.4-3.455-1.199-4.443c-0.797-0.988-1.881-1.482-3.246-1.482c-0.652,0-1.271,0.139-1.861,0.414
		c-0.588,0.277-1.117,0.668-1.59,1.18c-0.473,0.51-0.863,1.131-1.168,1.863s-0.5,1.555-0.584,2.469H404.955z"/>
	<path fill="#7DA0C4" d="M410.113,102.839c0-1.23,0.178-2.348,0.535-3.346s0.846-1.848,1.467-2.549
		c0.619-0.699,1.334-1.236,2.143-1.607s1.666-0.559,2.568-0.559c0.926,0,1.73,0.164,2.414,0.496c0.682,0.328,1.402,0.791,2.16,1.383
		l-0.064-2.801v-6.308h1.389v22.904h-1.199l-0.125-1.975h-0.096c-0.609,0.615-1.33,1.162-2.16,1.639
		c-0.83,0.48-1.75,0.717-2.758,0.717c-1.912,0-3.438-0.684-4.572-2.053C410.68,107.409,410.113,105.431,410.113,102.839
		 M411.594,102.839c0,1.02,0.109,1.943,0.332,2.771c0.221,0.828,0.541,1.535,0.961,2.119s0.939,1.041,1.561,1.369
		c0.619,0.33,1.328,0.494,2.127,0.494c0.842,0,1.646-0.219,2.414-0.652c0.766-0.438,1.549-1.057,2.348-1.865v-9.08
		c-0.799-0.721-1.551-1.229-2.254-1.527s-1.424-0.445-2.16-0.445c-0.756,0-1.461,0.174-2.111,0.525
		c-0.652,0.35-1.215,0.826-1.688,1.434c-0.473,0.604-0.846,1.326-1.119,2.166C411.73,100.985,411.594,101.884,411.594,102.839"/>
	<path fill="#7DA0C4" d="M429.436,91.466c-0.357,0-0.656-0.117-0.898-0.35c-0.242-0.234-0.363-0.531-0.363-0.893
		c0-0.403,0.121-0.718,0.363-0.94c0.242-0.224,0.541-0.334,0.898-0.334s0.658,0.11,0.898,0.334c0.242,0.223,0.363,0.537,0.363,0.94
		c0,0.361-0.121,0.658-0.363,0.893C430.094,91.349,429.793,91.466,429.436,91.466 M428.711,95.161h1.387v15.291h-1.387V95.161z"/>
	<path fill="#7DA0C4" d="M436.754,96.372h-2.365V95.29l2.396-0.129l0.188-4.428h1.199v4.428h4.383v1.211h-4.383v9.971
		c0,0.488,0.037,0.93,0.109,1.322c0.074,0.395,0.205,0.732,0.395,1.02s0.447,0.508,0.773,0.668c0.324,0.16,0.752,0.24,1.275,0.24
		c0.295,0,0.615-0.049,0.963-0.145c0.346-0.096,0.656-0.207,0.93-0.334l0.379,1.146c-0.441,0.172-0.885,0.307-1.324,0.416
		c-0.441,0.104-0.82,0.158-1.135,0.158c-0.736,0-1.346-0.111-1.828-0.334c-0.484-0.225-0.873-0.537-1.168-0.941
		c-0.295-0.402-0.5-0.891-0.615-1.465c-0.115-0.572-0.172-1.199-0.172-1.879V96.372z"/>
	<path fill="#7DA0C4" d="M445.248,102.839c0-1.252,0.184-2.379,0.551-3.377s0.861-1.842,1.482-2.531
		c0.619-0.691,1.324-1.221,2.111-1.594c0.789-0.371,1.604-0.559,2.443-0.559c1.809,0,3.227,0.617,4.258,1.848
		c1.029,1.232,1.545,2.975,1.545,5.225v0.574c0,0.191-0.021,0.383-0.064,0.574h-10.908c0.021,0.955,0.168,1.842,0.441,2.658
		c0.271,0.818,0.656,1.52,1.15,2.104s1.088,1.041,1.781,1.369c0.693,0.33,1.471,0.494,2.334,0.494c0.82,0,1.561-0.121,2.223-0.365
		c0.66-0.244,1.277-0.578,1.844-1.004l0.566,1.084c-0.607,0.359-1.275,0.699-2.002,1.018c-0.723,0.32-1.643,0.479-2.758,0.479
		c-0.967,0-1.875-0.182-2.727-0.541c-0.852-0.361-1.592-0.889-2.225-1.576c-0.629-0.691-1.129-1.531-1.496-2.518
		C445.432,105.212,445.248,104.093,445.248,102.839 M456.314,101.915c0-1.977-0.4-3.455-1.199-4.443s-1.881-1.482-3.246-1.482
		c-0.654,0-1.273,0.139-1.861,0.414c-0.59,0.277-1.119,0.668-1.592,1.18c-0.473,0.51-0.863,1.131-1.166,1.863
		c-0.305,0.732-0.5,1.555-0.584,2.469H456.314z"/>
	<path fill="#7DA0C4" d="M462.328,95.161h1.199l0.125,2.836h0.094c0.506-0.955,1.121-1.732,1.846-2.324
		c0.725-0.596,1.539-0.895,2.443-0.895c0.295,0,0.557,0.023,0.787,0.064c0.232,0.043,0.473,0.129,0.727,0.256l-0.314,1.273
		c-0.254-0.107-0.473-0.176-0.664-0.207c-0.188-0.031-0.43-0.049-0.725-0.049c-0.672,0-1.381,0.295-2.127,0.877
		c-0.746,0.584-1.414,1.6-2.002,3.043v10.416h-1.389V95.161z"/>
	<path fill="#7DA0C4" d="M473.334,95.161h1.199l0.125,2.836h0.094c0.506-0.955,1.121-1.732,1.846-2.324
		c0.725-0.596,1.539-0.895,2.443-0.895c0.293,0,0.557,0.023,0.787,0.064c0.232,0.043,0.473,0.129,0.727,0.256l-0.316,1.273
		c-0.252-0.107-0.473-0.176-0.662-0.207c-0.188-0.031-0.432-0.049-0.725-0.049c-0.674,0-1.383,0.295-2.127,0.877
		c-0.748,0.584-1.416,1.6-2.004,3.043v10.416h-1.387V95.161z"/>
	<path fill="#7DA0C4" d="M483.406,106.628c0-1.676,0.789-2.961,2.365-3.854c1.578-0.893,4.047-1.527,7.408-1.91
		c0.021-0.574-0.014-1.152-0.109-1.736c-0.094-0.584-0.273-1.104-0.535-1.561c-0.264-0.457-0.631-0.828-1.104-1.115
		s-1.078-0.432-1.813-0.432c-1.033,0-1.967,0.201-2.807,0.605c-0.842,0.406-1.516,0.797-2.018,1.18l-0.631-1.053
		c0.273-0.189,0.604-0.402,0.994-0.635c0.387-0.234,0.818-0.447,1.291-0.639c0.473-0.189,0.994-0.354,1.561-0.492
		c0.568-0.141,1.156-0.207,1.766-0.207c0.904,0,1.66,0.152,2.27,0.461c0.611,0.307,1.105,0.727,1.482,1.258
		c0.379,0.533,0.646,1.154,0.805,1.865s0.236,1.479,0.236,2.309v9.779h-1.166l-0.158-1.977h-0.064
		c-0.777,0.617-1.611,1.164-2.506,1.643c-0.893,0.477-1.844,0.717-2.852,0.717c-0.611,0-1.18-0.086-1.703-0.254
		c-0.525-0.17-0.994-0.426-1.404-0.766c-0.408-0.34-0.73-0.775-0.961-1.307C483.521,107.978,483.406,107.351,483.406,106.628
		 M484.857,106.565c0,1.104,0.314,1.891,0.945,2.357s1.377,0.701,2.24,0.701c0.881,0,1.723-0.211,2.521-0.637
		s1.67-1.041,2.615-1.848v-5.191c-1.555,0.189-2.863,0.424-3.926,0.699c-1.061,0.275-1.918,0.605-2.568,0.988
		c-0.65,0.381-1.119,0.816-1.402,1.307C485,105.431,484.857,105.972,484.857,106.565"/>
	<path fill="#7DA0C4" d="M500.344,95.161h1.199l0.125,2.357h0.094c0.779-0.785,1.578-1.438,2.396-1.959
		c0.82-0.52,1.754-0.781,2.807-0.781c1.576,0,2.732,0.479,3.469,1.436c0.736,0.955,1.104,2.43,1.104,4.426v9.813h-1.387v-9.621
		c0-1.635-0.27-2.84-0.805-3.613c-0.535-0.777-1.424-1.164-2.664-1.164c-0.904,0-1.725,0.24-2.459,0.717
		c-0.736,0.479-1.566,1.195-2.49,2.15v11.531h-1.389V95.161z"/>
	<path fill="#7DA0C4" d="M516.389,102.839c0-1.252,0.184-2.379,0.551-3.377s0.861-1.842,1.482-2.531
		c0.619-0.691,1.324-1.221,2.111-1.594c0.789-0.371,1.604-0.559,2.443-0.559c1.809,0,3.229,0.617,4.258,1.848
		c1.029,1.232,1.545,2.975,1.545,5.225v0.574c0,0.191-0.021,0.383-0.063,0.574h-10.91c0.021,0.955,0.168,1.842,0.441,2.658
		c0.271,0.818,0.656,1.52,1.152,2.104c0.492,0.584,1.088,1.041,1.779,1.369c0.693,0.33,1.473,0.494,2.334,0.494
		c0.82,0,1.561-0.121,2.223-0.365s1.277-0.578,1.844-1.004l0.568,1.084c-0.609,0.359-1.277,0.699-2.004,1.018
		c-0.723,0.32-1.643,0.479-2.756,0.479c-0.969,0-1.877-0.182-2.729-0.541c-0.852-0.361-1.592-0.889-2.225-1.576
		c-0.629-0.691-1.129-1.531-1.496-2.518C516.572,105.212,516.389,104.093,516.389,102.839 M527.455,101.915
		c0-1.977-0.4-3.455-1.199-4.443s-1.881-1.482-3.246-1.482c-0.652,0-1.273,0.139-1.861,0.414c-0.59,0.277-1.119,0.668-1.592,1.18
		c-0.473,0.51-0.861,1.131-1.166,1.863s-0.5,1.555-0.584,2.469H527.455z"/>
	<path fill="#7DA0C4" d="M532.26,106.628c0-1.676,0.787-2.961,2.365-3.854c1.576-0.893,4.045-1.527,7.408-1.91
		c0.02-0.574-0.016-1.152-0.111-1.736c-0.094-0.584-0.273-1.104-0.535-1.561c-0.264-0.457-0.631-0.828-1.104-1.115
		s-1.078-0.432-1.813-0.432c-1.031,0-1.967,0.201-2.807,0.605c-0.84,0.406-1.514,0.797-2.018,1.18l-0.631-1.053
		c0.273-0.189,0.604-0.402,0.994-0.635c0.387-0.234,0.818-0.447,1.291-0.639c0.473-0.189,0.994-0.354,1.563-0.492
		c0.566-0.141,1.156-0.207,1.766-0.207c0.902,0,1.66,0.152,2.268,0.461c0.611,0.307,1.105,0.727,1.484,1.258
		c0.377,0.533,0.645,1.154,0.803,1.865s0.236,1.479,0.236,2.309v9.779h-1.166l-0.158-1.977h-0.063
		c-0.777,0.617-1.613,1.164-2.508,1.643c-0.893,0.477-1.844,0.717-2.852,0.717c-0.611,0-1.178-0.086-1.703-0.254
		c-0.525-0.17-0.994-0.426-1.404-0.766c-0.408-0.34-0.73-0.775-0.961-1.307S532.26,107.351,532.26,106.628 M533.709,106.565
		c0,1.104,0.314,1.891,0.947,2.357c0.629,0.467,1.375,0.701,2.238,0.701c0.881,0,1.723-0.211,2.521-0.637s1.672-1.041,2.617-1.848
		v-5.191c-1.557,0.189-2.865,0.424-3.926,0.699c-1.063,0.275-1.92,0.605-2.568,0.988c-0.652,0.381-1.119,0.816-1.404,1.307
		C533.852,105.431,533.709,105.972,533.709,106.565"/>
	<path fill="#7DA0C4" d="M549.195,95.161h1.199l0.125,2.357h0.096c0.777-0.785,1.576-1.438,2.395-1.959
		c0.822-0.52,1.756-0.781,2.807-0.781c1.576,0,2.732,0.479,3.469,1.436c0.736,0.955,1.104,2.43,1.104,4.426v9.813h-1.387v-9.621
		c0-1.635-0.27-2.84-0.805-3.613c-0.535-0.777-1.424-1.164-2.664-1.164c-0.902,0-1.723,0.24-2.459,0.717
		c-0.736,0.479-1.566,1.195-2.49,2.15v11.531h-1.389V95.161z"/>
	<path fill="#7DA0C4" d="M574.135,95.161h1.199l0.125,2.836h0.094c0.506-0.955,1.121-1.732,1.846-2.324
		c0.725-0.596,1.539-0.895,2.443-0.895c0.293,0,0.557,0.023,0.787,0.064c0.23,0.043,0.473,0.129,0.727,0.256l-0.316,1.273
		c-0.252-0.107-0.473-0.176-0.662-0.207s-0.432-0.049-0.725-0.049c-0.674,0-1.383,0.295-2.129,0.877
		c-0.746,0.584-1.414,1.6-2.002,3.043v10.416h-1.387V95.161z"/>
	<path fill="#7DA0C4" d="M583.281,102.839c0-1.252,0.184-2.379,0.551-3.377s0.861-1.842,1.482-2.531
		c0.619-0.691,1.324-1.221,2.111-1.594c0.789-0.371,1.604-0.559,2.443-0.559c1.809,0,3.229,0.617,4.258,1.848
		c1.029,1.232,1.545,2.975,1.545,5.225v0.574c0,0.191-0.021,0.383-0.064,0.574h-10.908c0.021,0.955,0.168,1.842,0.441,2.658
		c0.271,0.818,0.656,1.52,1.152,2.104c0.492,0.584,1.086,1.041,1.779,1.369c0.693,0.33,1.473,0.494,2.334,0.494
		c0.82,0,1.561-0.121,2.223-0.365s1.277-0.578,1.844-1.004l0.568,1.084c-0.609,0.359-1.277,0.699-2.004,1.018
		c-0.723,0.32-1.643,0.479-2.758,0.479c-0.967,0-1.875-0.182-2.727-0.541c-0.852-0.361-1.592-0.889-2.225-1.576
		c-0.629-0.691-1.129-1.531-1.496-2.518C583.465,105.212,583.281,104.093,583.281,102.839 M594.348,101.915
		c0-1.977-0.4-3.455-1.199-4.443s-1.881-1.482-3.246-1.482c-0.652,0-1.273,0.139-1.861,0.414c-0.59,0.277-1.119,0.668-1.592,1.18
		c-0.473,0.51-0.863,1.131-1.166,1.863c-0.305,0.732-0.5,1.555-0.584,2.469H594.348z"/>
	<path fill="#7DA0C4" d="M599.643,107.681c0.65,0.553,1.346,1.014,2.082,1.387c0.734,0.371,1.648,0.557,2.742,0.557
		c1.197,0,2.098-0.303,2.697-0.908c0.598-0.604,0.896-1.311,0.896-2.117c0-0.469-0.109-0.883-0.33-1.242
		c-0.221-0.361-0.51-0.67-0.867-0.924c-0.357-0.256-0.752-0.479-1.182-0.67c-0.432-0.191-0.867-0.371-1.311-0.543
		c-0.566-0.211-1.139-0.434-1.717-0.668c-0.578-0.232-1.098-0.516-1.561-0.844c-0.463-0.33-0.836-0.721-1.119-1.18
		c-0.283-0.455-0.426-1.012-0.426-1.67c0-0.555,0.105-1.08,0.314-1.578c0.211-0.498,0.527-0.936,0.947-1.305
		c0.42-0.373,0.93-0.664,1.529-0.877s1.297-0.318,2.096-0.318s1.582,0.146,2.35,0.445s1.422,0.68,1.971,1.146l-0.758,0.988
		c-0.504-0.383-1.041-0.707-1.607-0.973s-1.24-0.398-2.02-0.398c-0.588,0-1.092,0.08-1.512,0.24
		c-0.42,0.158-0.771,0.365-1.057,0.621c-0.283,0.254-0.494,0.553-0.631,0.891c-0.137,0.34-0.205,0.68-0.205,1.02
		c0,0.445,0.1,0.822,0.301,1.131c0.199,0.309,0.467,0.578,0.805,0.813c0.336,0.234,0.719,0.441,1.15,0.621
		c0.43,0.182,0.865,0.357,1.309,0.525c0.588,0.234,1.176,0.469,1.766,0.701c0.588,0.234,1.117,0.521,1.592,0.859
		c0.473,0.34,0.855,0.76,1.15,1.258c0.293,0.5,0.441,1.121,0.441,1.865c0,0.574-0.111,1.121-0.332,1.639
		c-0.221,0.521-0.551,0.98-0.992,1.371c-0.441,0.395-0.977,0.705-1.607,0.939c-0.633,0.234-1.355,0.35-2.178,0.35
		c-1.135,0-2.174-0.205-3.121-0.621c-0.943-0.414-1.754-0.906-2.426-1.479L599.643,107.681z"/>
	<path fill="#7DA0C4" d="M613.121,102.839c0-1.273,0.184-2.416,0.553-3.426c0.367-1.008,0.861-1.852,1.482-2.531
		c0.619-0.68,1.338-1.199,2.158-1.561s1.682-0.543,2.586-0.543c0.902,0,1.77,0.182,2.602,0.543c0.83,0.361,1.555,0.881,2.174,1.561
		c0.621,0.68,1.115,1.523,1.482,2.531c0.367,1.01,0.553,2.152,0.553,3.426s-0.186,2.404-0.553,3.393s-0.861,1.822-1.482,2.502
		c-0.619,0.678-1.344,1.199-2.174,1.559c-0.832,0.361-1.699,0.541-2.602,0.541c-0.904,0-1.766-0.18-2.586-0.541
		c-0.82-0.359-1.539-0.881-2.158-1.559c-0.621-0.68-1.115-1.514-1.482-2.502C613.305,105.243,613.121,104.112,613.121,102.839
		 M614.572,102.839c0,0.998,0.137,1.91,0.41,2.74c0.271,0.826,0.646,1.539,1.119,2.133c0.473,0.596,1.033,1.059,1.688,1.387
		c0.65,0.33,1.354,0.494,2.111,0.494s1.467-0.164,2.129-0.494c0.662-0.328,1.229-0.791,1.701-1.387
		c0.473-0.594,0.848-1.307,1.119-2.133c0.273-0.83,0.41-1.742,0.41-2.74c0-1.02-0.137-1.943-0.41-2.771
		c-0.271-0.83-0.646-1.545-1.119-2.152c-0.473-0.604-1.039-1.068-1.701-1.398s-1.371-0.494-2.129-0.494s-1.461,0.164-2.111,0.494
		c-0.654,0.33-1.215,0.795-1.688,1.398c-0.473,0.607-0.848,1.322-1.119,2.152C614.709,100.896,614.572,101.819,614.572,102.839"/>
	<path fill="#7DA0C4" d="M631.701,95.161h1.197l0.127,2.836h0.094c0.504-0.955,1.119-1.732,1.844-2.324
		c0.727-0.596,1.541-0.895,2.443-0.895c0.295,0,0.557,0.023,0.789,0.064c0.23,0.043,0.473,0.129,0.725,0.256l-0.314,1.273
		c-0.254-0.107-0.473-0.176-0.662-0.207s-0.432-0.049-0.725-0.049c-0.674,0-1.383,0.295-2.129,0.877
		c-0.746,0.584-1.414,1.6-2.002,3.043v10.416h-1.387V95.161z"/>
	<path fill="#7DA0C4" d="M644.092,96.372h-2.365V95.29l2.396-0.129l0.188-4.428h1.199v4.428h4.383v1.211h-4.383v9.971
		c0,0.488,0.037,0.93,0.109,1.322c0.074,0.395,0.205,0.732,0.395,1.02s0.447,0.508,0.773,0.668c0.324,0.16,0.752,0.24,1.275,0.24
		c0.295,0,0.615-0.049,0.963-0.145c0.346-0.096,0.656-0.207,0.93-0.334l0.379,1.146c-0.441,0.172-0.885,0.307-1.324,0.416
		c-0.441,0.104-0.82,0.158-1.135,0.158c-0.736,0-1.346-0.111-1.83-0.334c-0.482-0.225-0.873-0.537-1.166-0.941
		c-0.295-0.402-0.5-0.891-0.615-1.465c-0.115-0.572-0.172-1.199-0.172-1.879V96.372z"/>
</g>
</svg>
